G04 #@! TF.FileFunction,Copper,L1,Top,Signal*
%FSLAX46Y46*%
G04 Gerber Fmt 4.6, Leading zero omitted, Abs format (unit mm)*
G04 Created by KiCad (PCBNEW 4.0.2+dfsg1-stable) date Пан 28 Сак 2016 16:34:23*
%MOMM*%
G01*
G04 APERTURE LIST*
%ADD10C,0.100000*%
%ADD11C,1.524000*%
%ADD12O,1.600000X1.600000*%
%ADD13O,2.032000X2.540000*%
%ADD14R,1.778000X1.778000*%
%ADD15C,1.778000*%
%ADD16R,1.900000X2.000000*%
%ADD17C,1.900000*%
%ADD18R,2.032000X1.727200*%
%ADD19O,2.032000X1.727200*%
%ADD20R,2.032000X2.032000*%
%ADD21O,2.032000X2.032000*%
%ADD22C,1.998980*%
%ADD23C,2.000000*%
%ADD24C,0.700000*%
%ADD25C,0.500000*%
%ADD26C,1.000000*%
G04 APERTURE END LIST*
D10*
D11*
X152400000Y-93980000D03*
X154940000Y-93980000D03*
X157480000Y-93980000D03*
X152400000Y-99060000D03*
X154940000Y-99060000D03*
X157480000Y-99060000D03*
D12*
X129540000Y-134620000D03*
X129540000Y-132080000D03*
X129540000Y-129540000D03*
X129540000Y-127000000D03*
X129540000Y-124460000D03*
X129540000Y-121920000D03*
X129540000Y-119380000D03*
X129540000Y-116840000D03*
X129540000Y-114300000D03*
X121920000Y-114300000D03*
X121920000Y-116840000D03*
X121920000Y-119380000D03*
X121920000Y-121920000D03*
X121920000Y-124460000D03*
X121920000Y-127000000D03*
X121920000Y-129540000D03*
X121920000Y-132080000D03*
X121920000Y-134620000D03*
D11*
X147320000Y-106680000D03*
X147320000Y-109220000D03*
X147320000Y-111760000D03*
X147320000Y-114300000D03*
X147320000Y-116840000D03*
X147320000Y-119380000D03*
X147320000Y-121920000D03*
X147320000Y-124460000D03*
X147320000Y-127000000D03*
X147320000Y-129540000D03*
X147320000Y-132080000D03*
X147320000Y-134620000D03*
X144780000Y-116840000D03*
X144780000Y-119380000D03*
X132080000Y-134620000D03*
X132080000Y-132080000D03*
X132080000Y-129540000D03*
X132080000Y-127000000D03*
X132080000Y-124460000D03*
X132080000Y-121920000D03*
X132080000Y-119380000D03*
X132080000Y-116840000D03*
X132080000Y-114300000D03*
X132080000Y-111760000D03*
X132080000Y-109220000D03*
X132080000Y-106680000D03*
D13*
X165100000Y-104140000D03*
X162560000Y-104140000D03*
X160020000Y-104140000D03*
D14*
X162433000Y-109220000D03*
D15*
X165100000Y-109220000D03*
D16*
X160020000Y-134620000D03*
D17*
X162560000Y-134620000D03*
D16*
X168910000Y-132080000D03*
D17*
X166370000Y-132080000D03*
D18*
X114300000Y-134620000D03*
D19*
X114300000Y-132080000D03*
X114300000Y-129540000D03*
X114300000Y-127000000D03*
X114300000Y-124460000D03*
X114300000Y-121920000D03*
X114300000Y-119380000D03*
X114300000Y-116840000D03*
X114300000Y-114300000D03*
D20*
X147320000Y-99060000D03*
D21*
X147320000Y-101600000D03*
D22*
X162560000Y-125730000D03*
X162560000Y-128270000D03*
X162560000Y-113030000D03*
X162560000Y-115570000D03*
X165100000Y-113030000D03*
X165100000Y-115570000D03*
X165100000Y-125730000D03*
X165100000Y-128270000D03*
D11*
X160020000Y-119380000D03*
X162560000Y-119380000D03*
X165100000Y-119380000D03*
X167640000Y-119380000D03*
X167640000Y-121920000D03*
X165100000Y-121920000D03*
X162560000Y-121920000D03*
X160020000Y-121920000D03*
D23*
X137160000Y-60960000D03*
X134620000Y-60960000D03*
X137160000Y-55880000D03*
X134620000Y-55880000D03*
X121920000Y-91440000D03*
X119380000Y-91440000D03*
X111760000Y-91440000D03*
X114300000Y-91440000D03*
X144780000Y-71120000D03*
X144780000Y-73660000D03*
X144780000Y-78740000D03*
X144780000Y-76200000D03*
X152400000Y-60960000D03*
X154940000Y-60960000D03*
X152400000Y-55880000D03*
X154940000Y-55880000D03*
X177800000Y-91440000D03*
X175260000Y-91440000D03*
X167640000Y-91440000D03*
X170180000Y-91440000D03*
D22*
X140970000Y-60960000D03*
X143510000Y-60960000D03*
X140970000Y-55880000D03*
X143510000Y-55880000D03*
X121920000Y-95250000D03*
X121920000Y-97790000D03*
X111760000Y-95250000D03*
X111760000Y-97790000D03*
X148590000Y-71120000D03*
X151130000Y-71120000D03*
X148590000Y-78740000D03*
X151130000Y-78740000D03*
X148590000Y-60960000D03*
X146050000Y-60960000D03*
X148590000Y-55880000D03*
X146050000Y-55880000D03*
X177800000Y-95250000D03*
X177800000Y-97790000D03*
X167640000Y-95250000D03*
X167640000Y-97790000D03*
D24*
X162560000Y-113030000D02*
X165100000Y-113030000D01*
X160020000Y-119380000D02*
X160020000Y-115570000D01*
X160020000Y-115570000D02*
X162560000Y-113030000D01*
X162433000Y-109220000D02*
X162433000Y-104267000D01*
X162433000Y-104267000D02*
X162560000Y-104140000D01*
X162560000Y-113030000D02*
X162560000Y-109347000D01*
X162560000Y-109347000D02*
X162433000Y-109220000D01*
X162433000Y-112903000D02*
X162560000Y-113030000D01*
X162560000Y-109093000D02*
X162433000Y-109220000D01*
X165100000Y-104140000D02*
X167640000Y-101600000D01*
X167640000Y-101600000D02*
X167640000Y-97790000D01*
X121920000Y-97790000D02*
X135890000Y-97790000D01*
X139700000Y-101600000D02*
X147320000Y-101600000D01*
X135890000Y-97790000D02*
X139700000Y-101600000D01*
X146050000Y-60960000D02*
X146050000Y-62230000D01*
X151130000Y-67310000D02*
X151130000Y-71120000D01*
X146050000Y-62230000D02*
X151130000Y-67310000D01*
X111760000Y-97790000D02*
X121920000Y-97790000D01*
X177800000Y-97790000D02*
X167640000Y-97790000D01*
X151130000Y-71120000D02*
X151130000Y-78740000D01*
X143510000Y-55880000D02*
X143510000Y-60960000D01*
X143510000Y-60960000D02*
X146050000Y-60960000D01*
X146050000Y-55880000D02*
X143510000Y-55880000D01*
X165100000Y-109220000D02*
X165100000Y-104140000D01*
D25*
X160020000Y-134620000D02*
X160020000Y-135890000D01*
X168910000Y-135255000D02*
X168910000Y-132080000D01*
X167005000Y-137160000D02*
X168910000Y-135255000D01*
X161290000Y-137160000D02*
X167005000Y-137160000D01*
X160020000Y-135890000D02*
X161290000Y-137160000D01*
X167640000Y-121920000D02*
X167640000Y-127635000D01*
X168910000Y-128905000D02*
X168910000Y-132080000D01*
X167640000Y-127635000D02*
X168910000Y-128905000D01*
D26*
X162560000Y-134620000D02*
X162560000Y-128270000D01*
D25*
X165100000Y-128270000D02*
X165100000Y-130810000D01*
X165100000Y-130810000D02*
X166370000Y-132080000D01*
D24*
X121920000Y-134620000D02*
X114300000Y-134620000D01*
X114300000Y-132080000D02*
X121920000Y-132080000D01*
X121920000Y-129540000D02*
X114300000Y-129540000D01*
X114300000Y-127000000D02*
X121920000Y-127000000D01*
X121920000Y-124460000D02*
X114300000Y-124460000D01*
X114300000Y-121920000D02*
X121920000Y-121920000D01*
X121920000Y-119380000D02*
X114300000Y-119380000D01*
X114300000Y-116840000D02*
X121920000Y-116840000D01*
X154940000Y-99060000D02*
X160020000Y-104140000D01*
X147320000Y-106680000D02*
X144780000Y-104140000D01*
X121920000Y-106680000D02*
X121920000Y-114300000D01*
X124460000Y-104140000D02*
X121920000Y-106680000D01*
X144780000Y-104140000D02*
X124460000Y-104140000D01*
X160020000Y-104140000D02*
X157480000Y-106680000D01*
X157480000Y-106680000D02*
X147320000Y-106680000D01*
X121920000Y-114300000D02*
X114300000Y-114300000D01*
D26*
X162560000Y-121920000D02*
X162560000Y-125730000D01*
D24*
X162560000Y-119380000D02*
X162560000Y-115570000D01*
X165100000Y-119380000D02*
X165100000Y-115570000D01*
D26*
X165100000Y-121920000D02*
X165100000Y-125730000D01*
D24*
X129540000Y-134620000D02*
X132080000Y-134620000D01*
X132080000Y-132080000D02*
X129540000Y-132080000D01*
X129540000Y-129540000D02*
X132080000Y-129540000D01*
X132080000Y-127000000D02*
X129540000Y-127000000D01*
X129540000Y-124460000D02*
X132080000Y-124460000D01*
X132080000Y-121920000D02*
X129540000Y-121920000D01*
X132080000Y-119380000D02*
X129540000Y-119380000D01*
X132080000Y-116840000D02*
X129540000Y-116840000D01*
X132080000Y-109220000D02*
X134620000Y-109220000D01*
X172720000Y-119380000D02*
X167640000Y-119380000D01*
X172720000Y-139700000D02*
X172720000Y-119380000D01*
X134620000Y-139700000D02*
X172720000Y-139700000D01*
X134620000Y-109220000D02*
X134620000Y-139700000D01*
X160020000Y-121920000D02*
X160020000Y-127000000D01*
X137160000Y-106680000D02*
X132080000Y-106680000D01*
X137160000Y-137160000D02*
X137160000Y-106680000D01*
X154940000Y-137160000D02*
X137160000Y-137160000D01*
X157480000Y-134620000D02*
X154940000Y-137160000D01*
X157480000Y-129540000D02*
X157480000Y-134620000D01*
X160020000Y-127000000D02*
X157480000Y-129540000D01*
D25*
X159385000Y-121920000D02*
X160020000Y-121920000D01*
D24*
X147320000Y-99060000D02*
X152400000Y-99060000D01*
X140970000Y-60960000D02*
X137160000Y-60960000D01*
X134620000Y-55880000D02*
X137160000Y-53340000D01*
X152400000Y-53340000D02*
X154940000Y-55880000D01*
X137160000Y-53340000D02*
X152400000Y-53340000D01*
X170180000Y-91440000D02*
X170180000Y-88900000D01*
X170180000Y-88900000D02*
X134620000Y-88900000D01*
X119380000Y-91440000D02*
X121920000Y-88900000D01*
X121920000Y-88900000D02*
X134620000Y-88900000D01*
X134620000Y-88900000D02*
X134620000Y-68580000D01*
X144780000Y-73660000D02*
X139700000Y-73660000D01*
X139700000Y-73660000D02*
X134620000Y-68580000D01*
X134620000Y-68580000D02*
X134620000Y-60960000D01*
X119380000Y-91440000D02*
X114300000Y-91440000D01*
X170180000Y-91440000D02*
X175260000Y-91440000D01*
X144780000Y-76200000D02*
X144780000Y-73660000D01*
X134620000Y-60960000D02*
X134620000Y-55880000D01*
X154940000Y-55880000D02*
X154940000Y-60960000D01*
X140970000Y-55880000D02*
X137160000Y-55880000D01*
X121920000Y-91440000D02*
X121920000Y-95250000D01*
X111760000Y-91440000D02*
X111760000Y-95250000D01*
X144780000Y-71120000D02*
X148590000Y-71120000D01*
X144780000Y-78740000D02*
X148590000Y-78740000D01*
X152400000Y-60960000D02*
X148590000Y-60960000D01*
X152400000Y-55880000D02*
X148590000Y-55880000D01*
X177800000Y-95250000D02*
X177800000Y-91440000D01*
X167640000Y-95250000D02*
X167640000Y-91440000D01*
X129540000Y-114300000D02*
X132080000Y-114300000D01*
M02*
